<svg width="1200" height="900" viewBox="0 0 1200 900" fill="none" xmlns="http://www.w3.org/2000/svg">
  <rect width="1200" height="900" rx="64" fill="#FFF7EF"/>
  <g filter="url(#f0)">
    <path d="M353 640C353 512.824 456.824 409 584 409H616C743.176 409 847 512.824 847 640V680C847 711.928 821.928 737 790 737H410C378.072 737 353 711.928 353 680V640Z" fill="#FF7A00"/>
    <path d="M463 416C463 353.144 514.144 302 577 302H623C685.856 302 737 353.144 737 416V448C737 479.928 711.928 505 680 505H520C488.072 505 463 479.928 463 448V416Z" fill="#24150B" opacity="0.08"/>
    <circle cx="520" cy="452" r="18" fill="#24150B"/>
    <circle cx="680" cy="452" r="18" fill="#24150B"/>
    <path d="M548 510C580 544 620 544 652 510" stroke="#24150B" stroke-width="18" stroke-linecap="round"/>
    <path d="M430 362C430 319.474 464.474 285 507 285C533.91 285 557.592 299.102 571 320C557.592 340.898 533.91 355 507 355C464.474 355 430 320.526 430 362Z" fill="#7AD7F0" opacity="0.6"/>
    <path d="M770 362C770 319.474 735.526 285 693 285C666.09 285 642.408 299.102 629 320C642.408 340.898 666.09 355 693 355C735.526 355 770 320.526 770 362Z" fill="#FFD84D" opacity="0.55"/>
  </g>
  <defs>
    <filter id="f0" x="290" y="240" width="620" height="560" filterUnits="userSpaceOnUse" color-interpolation-filters="sRGB">
      <feFlood flood-opacity="0" result="BackgroundImageFix"/>
      <feColorMatrix in="SourceAlpha" type="matrix" values="0 0 0 0 0 0 0 0 0 0 0 0 0 0 0 0 0 0 127 0" result="hardAlpha"/>
      <feOffset dy="26"/>
      <feGaussianBlur stdDeviation="28"/>
      <feColorMatrix type="matrix" values="0 0 0 0 0.141 0 0 0 0 0.082 0 0 0 0 0.043 0 0 0 0.22 0"/>
      <feBlend mode="normal" in2="BackgroundImageFix" result="effect1_dropShadow_0"/>
      <feBlend mode="normal" in="SourceGraphic" in2="effect1_dropShadow_0" result="shape"/>
    </filter>
  </defs>
</svg>
